<svg xmlns="http://www.w3.org/2000/svg" xmlns:xlink="http://www.w3.org/1999/xlink" id="Layer_1" x="0" y="0" version="1.1" viewBox="0 0 116.7 112.5" style="enable-background:new 0 0 116.7 112.5" xml:space="preserve"><style type="text/css">.st0{stroke-linecap:round}.st0,.st1,.st2{fill:none;stroke:#000;stroke-width:2;stroke-miterlimit:10}.st2{stroke-linecap:round;stroke-linejoin:round}</style><g><line x1="15.8" x2="23" y1="85.5" y2="85.5" class="st0"/><line x1="29.5" x2="101.7" y1="85.5" y2="85.5" class="st0"/><path d="M93,49.9H24.3c-6.6,0-11.9,5.3-11.9,11.9v5.3h92.5v-5.3C104.9,55.2,99.6,49.9,93,49.9z" class="st1"/><path d="M99.2,93.5H17.6c-5.1,0-9.2-4.1-9.2-9.2v-8.1c0-5.1,4.1-9.2,9.2-9.2h81.7c5.1,0,9.2,4.1,9.2,9.2v8.1 C108.4,89.4,104.3,93.5,99.2,93.5z" class="st1"/><path d="M16.3,105.5h-1.4c-1.7,0-3-1.4-3-3v-9h7.5v9C19.4,104.1,18,105.5,16.3,105.5z" class="st2"/><path d="M101.9,105.5h-1.4c-1.7,0-3-1.4-3-3v-9h7.5v9C104.9,104.1,103.5,105.5,101.9,105.5z" class="st2"/><path d="M104.9,105.5" class="st1"/><line x1="97.4" x2="104.9" y1="93.5" y2="93.5" class="st1"/><path d="M46,49.9H33.2c-4,0-7.3-3.3-7.3-7.3v-6.4c0-4,3.3-7.3,7.3-7.3H46c4,0,7.3,3.3,7.3,7.3v6.4 C53.3,46.6,50,49.9,46,49.9z" class="st0"/><path d="M83.8,49.9H71c-4,0-7.3-3.3-7.3-7.3v-6.4c0-4,3.3-7.3,7.3-7.3h12.8c4,0,7.3,3.3,7.3,7.3v6.4 C91.1,46.6,87.8,49.9,83.8,49.9z" class="st0"/><ellipse cx="22.9" cy="11.5" class="st0" rx="5.1" ry="6"/><ellipse cx="94.6" cy="11.5" class="st0" rx="5.1" ry="6"/><path d="M99.7,49.9H17.3v-25c0-4.1,3.3-7.4,7.4-7.4h67.6c4.1,0,7.4,3.3,7.4,7.4V49.9z" class="st1"/></g></svg>