<?xml version="1.0" encoding="utf-8"?>
<!-- Generator: Adobe Illustrator 25.2.0, SVG Export Plug-In . SVG Version: 6.00 Build 0)  -->
<svg version="1.1" id="Layer_1" xmlns="http://www.w3.org/2000/svg" xmlns:xlink="http://www.w3.org/1999/xlink" x="0px" y="0px"
	 viewBox="0 0 102 117" style="enable-background:new 0 0 102 117;" xml:space="preserve">
<style type="text/css">
	.st0{fill:none;stroke:#000000;stroke-width:1.1563;stroke-linecap:round;stroke-linejoin:round;stroke-miterlimit:10;}
	.st1{fill:none;stroke:#000000;stroke-width:1.1563;stroke-miterlimit:10;}
	.st2{fill:none;stroke:#000000;stroke-width:1.1563;stroke-linejoin:round;stroke-miterlimit:10;}
	.st3{fill:none;stroke:#000000;stroke-width:1.6188;stroke-linecap:round;stroke-miterlimit:10;}
	.st4{fill:none;stroke:#000000;stroke-width:3.4689;stroke-linecap:round;stroke-miterlimit:10;}
</style>
<g>
	<polyline class="st0" points="15.9,8.5 15.9,76 15.9,92.8 15.9,108.5 	"/>
	<polyline class="st1" points="84.1,8.5 84.1,76 84.1,92.8 84.1,108.5 	"/>
	<polyline class="st1" points="15.9,108.5 49.3,108.5 84.1,108.5 	"/>
	<polyline class="st2" points="15.9,8.5 49.3,8.5 84.1,8.5 	"/>
	<polyline class="st1" points="49.3,8.5 49.3,76 49.3,92.8 49.3,108.5 	"/>
	<polyline class="st1" points="15.9,76 49.3,76 84.1,76 	"/>
	<polyline class="st1" points="15.9,92.8 49.3,92.8 84.1,92.8 	"/>
	<line class="st3" x1="39.6" y1="36.6" x2="39.6" y2="52.5"/>
	<line class="st3" x1="59.2" y1="36.7" x2="59.2" y2="52.6"/>
	<line class="st4" x1="26.4" y1="77.3" x2="38.3" y2="77.3"/>
	<line class="st4" x1="61.7" y1="77.3" x2="73.6" y2="77.3"/>
	<line class="st4" x1="26.4" y1="94.3" x2="38.3" y2="94.3"/>
	<line class="st4" x1="61.7" y1="94.3" x2="73.6" y2="94.3"/>
</g>
</svg>
