<svg xmlns="http://www.w3.org/2000/svg" xmlns:xlink="http://www.w3.org/1999/xlink" id="Layer_1" x="0" y="0" version="1.1" viewBox="0 0 102 117" style="enable-background:new 0 0 102 117" xml:space="preserve"><style type="text/css">.st0{fill:none;stroke:#000;stroke-linecap:round;stroke-linejoin:round;stroke-miterlimit:10}.st0,.st1{stroke-width:1.1563}.st1,.st2,.st3,.st4{fill:none;stroke:#000;stroke-miterlimit:10}.st2{stroke-width:1.1563;stroke-linejoin:round}.st3,.st4{stroke-width:1.6188;stroke-linecap:round}.st4{stroke-width:3.4689}</style><g><polyline points="15.9 8.5 15.9 76 15.9 92.8 15.9 108.5" class="st0"/><polyline points="84.1 8.5 84.1 76 84.1 92.8 84.1 108.5" class="st1"/><polyline points="15.9 108.5 49.3 108.5 84.1 108.5" class="st1"/><polyline points="15.9 8.5 49.3 8.5 84.1 8.5" class="st2"/><polyline points="49.3 8.5 49.3 76 49.3 92.8 49.3 108.5" class="st1"/><polyline points="15.9 76 49.3 76 84.1 76" class="st1"/><polyline points="15.9 92.8 49.3 92.8 84.1 92.8" class="st1"/><line x1="39.6" x2="39.6" y1="36.6" y2="52.5" class="st3"/><line x1="59.2" x2="59.2" y1="36.7" y2="52.6" class="st3"/><line x1="26.4" x2="38.3" y1="77.3" y2="77.3" class="st4"/><line x1="61.7" x2="73.6" y1="77.3" y2="77.3" class="st4"/><line x1="26.4" x2="38.3" y1="94.3" y2="94.3" class="st4"/><line x1="61.7" x2="73.6" y1="94.3" y2="94.3" class="st4"/></g></svg>