<?xml version="1.0" encoding="utf-8"?>
<!-- Generator: Adobe Illustrator 25.2.0, SVG Export Plug-In . SVG Version: 6.00 Build 0)  -->
<svg version="1.1" id="Layer_1" xmlns="http://www.w3.org/2000/svg" xmlns:xlink="http://www.w3.org/1999/xlink" x="0px" y="0px"
	 viewBox="0 0 168 117" style="enable-background:new 0 0 168 117;" xml:space="preserve">
<style type="text/css">
	.st0{fill:none;stroke:#000000;stroke-width:5.0372;stroke-linecap:round;stroke-miterlimit:10;}
	.st1{fill:none;stroke:#000000;stroke-width:5.0372;stroke-miterlimit:10;}
	.st2{fill:none;stroke:#000000;stroke-width:5.0372;stroke-linecap:round;stroke-linejoin:round;stroke-miterlimit:10;}
</style>
<g>
	<g>
		<polyline class="st0" points="9.5,10.2 9.5,67.9 9.5,82.7 9.5,108.4 9.5,109.6 		"/>
		<line class="st1" x1="32.3" y1="67.9" x2="9.5" y2="67.9"/>
		<polyline class="st0" points="47.9,109.6 47.9,108.4 47.9,82.9 47.9,82.7 		"/>
		<path class="st1" d="M32.3,67.9c8.5,0,15.5,6.6,15.6,14.8"/>
		<line class="st0" x1="37.6" y1="82.7" x2="9.5" y2="82.7"/>
		<line class="st1" x1="47.9" y1="82.7" x2="47.9" y2="82.7"/>
	</g>
	<g>
		<polyline class="st0" points="159.5,109 159.5,107.8 159.5,82.1 159.5,67.4 159.5,9.6 		"/>
		<line class="st1" x1="159.5" y1="67.4" x2="136.6" y2="67.4"/>
		<polyline class="st0" points="121,82.1 121,82.3 121,107.8 121,109 		"/>
		<path class="st1" d="M121,82.1c0.1-8.2,7-14.8,15.6-14.8"/>
		<line class="st0" x1="159.5" y1="82.1" x2="131.3" y2="82.1"/>
		<line class="st1" x1="121" y1="82.1" x2="121" y2="82.1"/>
	</g>
	<line class="st0" x1="70.2" y1="107.6" x2="99.2" y2="107.6"/>
	<line class="st0" x1="84.8" y1="107.6" x2="84.8" y2="50.8"/>
	<g>
		<line class="st1" x1="54" y1="50.8" x2="39" y2="50.8"/>
		<line class="st1" x1="54" y1="32.9" x2="39" y2="32.9"/>
		<path class="st1" d="M39,50.8c-3.9,0-7-4-7-8.9s3.2-8.9,7-8.9"/>
		<line class="st1" x1="115.5" y1="32.9" x2="54" y2="32.9"/>
		<line class="st1" x1="84.4" y1="50.8" x2="52.8" y2="50.8"/>
	</g>
	<g>
		<line class="st0" x1="132.3" y1="50.8" x2="121.4" y2="50.8"/>
		<line class="st0" x1="132.3" y1="32.9" x2="121.4" y2="32.9"/>
		<path class="st0" d="M132.3,32.9c2.8,0,5.1,4,5.1,8.9s-2.3,8.9-5.1,8.9"/>
		<line class="st0" x1="76.9" y1="32.9" x2="121.4" y2="32.9"/>
		<line class="st0" x1="99.4" y1="50.8" x2="122.3" y2="50.8"/>
	</g>
	<path class="st2" d="M108.7,19.3c-0.2,7.1-10.7,12.8-23.7,12.8s-23.5-5.7-23.7-12.8H108.7z"/>
</g>
</svg>
