<svg xmlns="http://www.w3.org/2000/svg" xmlns:xlink="http://www.w3.org/1999/xlink" id="Layer_1" x="0" y="0" version="1.1" viewBox="0 0 168 117" style="enable-background:new 0 0 168 117" xml:space="preserve"><style type="text/css">.st0{stroke-linecap:round}.st0,.st1,.st2{fill:none;stroke:#000;stroke-width:5.0372;stroke-miterlimit:10}.st2{stroke-linecap:round;stroke-linejoin:round}</style><g><g><polyline points="9.5 10.2 9.5 67.9 9.5 82.7 9.5 108.4 9.5 109.6" class="st0"/><line x1="32.3" x2="9.5" y1="67.9" y2="67.9" class="st1"/><polyline points="47.9 109.6 47.9 108.4 47.9 82.9 47.9 82.7" class="st0"/><path d="M32.3,67.9c8.5,0,15.5,6.6,15.6,14.8" class="st1"/><line x1="37.6" x2="9.5" y1="82.7" y2="82.7" class="st0"/><line x1="47.9" x2="47.9" y1="82.7" y2="82.7" class="st1"/></g><g><polyline points="159.5 109 159.5 107.8 159.5 82.1 159.5 67.4 159.5 9.6" class="st0"/><line x1="159.5" x2="136.6" y1="67.4" y2="67.4" class="st1"/><polyline points="121 82.1 121 82.3 121 107.8 121 109" class="st0"/><path d="M121,82.1c0.1-8.2,7-14.8,15.6-14.8" class="st1"/><line x1="159.5" x2="131.3" y1="82.1" y2="82.1" class="st0"/><line x1="121" x2="121" y1="82.1" y2="82.1" class="st1"/></g><line x1="70.2" x2="99.2" y1="107.6" y2="107.6" class="st0"/><line x1="84.8" x2="84.8" y1="107.6" y2="50.8" class="st0"/><g><line x1="54" x2="39" y1="50.8" y2="50.8" class="st1"/><line x1="54" x2="39" y1="32.9" y2="32.9" class="st1"/><path d="M39,50.8c-3.9,0-7-4-7-8.9s3.2-8.9,7-8.9" class="st1"/><line x1="115.5" x2="54" y1="32.9" y2="32.9" class="st1"/><line x1="84.4" x2="52.8" y1="50.8" y2="50.8" class="st1"/></g><g><line x1="132.3" x2="121.4" y1="50.8" y2="50.8" class="st0"/><line x1="132.3" x2="121.4" y1="32.9" y2="32.9" class="st0"/><path d="M132.3,32.9c2.8,0,5.1,4,5.1,8.9s-2.3,8.9-5.1,8.9" class="st0"/><line x1="76.9" x2="121.4" y1="32.9" y2="32.9" class="st0"/><line x1="99.4" x2="122.3" y1="50.8" y2="50.8" class="st0"/></g><path d="M108.7,19.3c-0.2,7.1-10.7,12.8-23.7,12.8s-23.5-5.7-23.7-12.8H108.7z" class="st2"/></g></svg>