<?xml version="1.0" encoding="utf-8"?>
<!-- Generator: Adobe Illustrator 25.2.0, SVG Export Plug-In . SVG Version: 6.00 Build 0)  -->
<svg version="1.1" id="Layer_1" xmlns="http://www.w3.org/2000/svg" xmlns:xlink="http://www.w3.org/1999/xlink" x="0px" y="0px"
	 viewBox="0 0 116.7 112.5" style="enable-background:new 0 0 116.7 112.5;" xml:space="preserve">
<style type="text/css">
	.st0{fill:none;stroke:#000000;stroke-width:1.1565;stroke-linecap:round;stroke-linejoin:round;stroke-miterlimit:10;}
	.st1{fill:none;stroke:#000000;stroke-width:1.2028;stroke-linecap:round;stroke-linejoin:round;stroke-miterlimit:10;}
	.st2{fill:none;stroke:#000000;stroke-width:1.0906;stroke-linecap:round;stroke-linejoin:round;stroke-miterlimit:10;}
	.st3{fill:none;stroke:#000000;stroke-width:1.0729;stroke-linecap:round;stroke-linejoin:round;stroke-miterlimit:10;}
</style>
<g>
	<path class="st0" d="M107.5,45v9.4h-3.8c-3,0-5.4,2.4-5.4,5.4v14H59.4V44.3c0-4.2,3.4-7.7,7.7-7.7h32.1
		C103.7,36.7,107.5,40.4,107.5,45z"/>
	<path class="st0" d="M59.4,44.6v29.3H20.1v-14c0-3-2.4-5.4-5.4-5.4h-3.3v-9.7c0-4.5,3.6-8.1,8.1-8.1h32.1
		C55.8,36.7,59.4,40.2,59.4,44.6z"/>
	<path class="st0" d="M20.1,59.9v20.8c0,3-2.4,5.4-5.4,5.4H8.8c-3,0-5.4-2.4-5.4-5.4V59.9c0-3,2.4-5.4,5.4-5.4h5.8
		C17.6,54.5,20.1,56.9,20.1,59.9z"/>
	<path class="st0" d="M114.9,59.9v20.8c0,3-2.4,5.4-5.4,5.4h-5.8c-3,0-5.4-2.4-5.4-5.4V59.9c0-3,2.4-5.4,5.4-5.4h5.8
		C112.4,54.5,114.9,56.9,114.9,59.9z"/>
	<path class="st1" d="M103.7,86.2H14.6c3,0,5.4-2.4,5.4-5.4v-6.8h78.2v6.8C98.2,83.7,100.7,86.2,103.7,86.2z"/>
	<path class="st2" d="M59.4,70.3v3.6H20.1V62.7h30C55.2,62.7,59.4,66.1,59.4,70.3z"/>
	<path class="st3" d="M98.2,62.7v11H59.4v-3.5c0-4.1,4.2-7.5,9.3-7.5H98.2z"/>
</g>
</svg>
